<?xml version="1.0" standalone="no"?>
<!DOCTYPE svg PUBLIC "-//W3C//DTD SVG 20010904//EN"
 "http://www.w3.org/TR/2001/REC-SVG-20010904/DTD/svg10.dtd">
<svg version="1.0" xmlns="http://www.w3.org/2000/svg"
 width="1200.000000pt" height="1200.000000pt" viewBox="0 0 1200.000000 1200.000000"
 preserveAspectRatio="xMidYMid meet">

<g transform="translate(0.000000,1200.000000) scale(0.100000,-0.100000)"
fill="#000000" stroke="none">
<path d="M0 6000 l0 -6000 6000 0 6000 0 0 6000 0 6000 -6000 0 -6000 0 0
-6000z m3060 4220 c538 -131 893 -657 805 -1197 -17 -106 -56 -236 -93 -308
-109 -217 -311 -411 -527 -506 l-75 -33 0 -429 c0 -340 3 -428 13 -424 354
156 747 277 1112 343 600 108 1118 131 1580 68 715 -96 1230 -364 1573 -818
110 -145 214 -348 257 -497 l19 -67 316 -5 c341 -5 410 -12 620 -68 195 -52
357 -122 545 -237 131 -79 244 -171 385 -312 192 -192 319 -366 433 -596 147
-295 213 -549 224 -866 7 -191 -3 -272 -49 -418 -53 -168 -139 -322 -248 -448
-103 -118 -218 -194 -336 -223 -27 -6 -53 -15 -58 -20 -5 -4 -13 -52 -17 -106
-38 -489 -329 -927 -761 -1149 -304 -155 -619 -198 -953 -129 -403 83 -771
367 -963 742 -83 162 -137 349 -148 508 -3 39 -7 85 -10 103 l-5 32 -699 0
-699 0 -5 -32 c-3 -18 -7 -64 -10 -103 -20 -300 -171 -623 -398 -854 -195
-199 -454 -342 -712 -396 -259 -53 -525 -37 -763 45 -467 162 -830 574 -928
1055 -20 97 -36 282 -29 327 5 31 3 35 -38 57 -160 89 -314 228 -427 387 -112
158 -200 365 -232 551 -19 109 -7 288 30 433 59 230 140 468 233 680 101 230
92 177 93 595 0 345 2 376 22 462 43 180 102 288 235 428 l78 83 -2 651 -3
651 -70 32 c-246 111 -460 336 -555 581 -86 224 -93 511 -18 732 89 260 293
492 543 618 70 35 205 77 300 93 108 18 304 11 415 -16z"/>
<path d="M2687 9506 c-79 -33 -123 -69 -167 -137 -98 -153 -63 -353 82 -462
60 -46 133 -69 217 -69 65 1 84 5 148 37 129 64 198 181 191 325 -6 130 -77
239 -196 297 -81 40 -193 44 -275 9z"/>
<path d="M5045 7044 c-16 -2 -79 -9 -140 -15 -631 -61 -1262 -244 -1673 -485
-145 -85 -325 -217 -354 -261 -44 -63 -51 -111 -49 -333 1 -113 4 -219 7 -235
3 -17 1 -92 -5 -167 -14 -165 -38 -257 -126 -464 -115 -271 -174 -440 -225
-643 -27 -109 -21 -157 36 -270 42 -84 139 -222 159 -227 6 -2 31 25 57 60
158 209 364 371 592 467 106 44 248 84 334 95 31 3 63 9 70 13 9 5 -68 126
-251 397 l-264 389 215 3 214 2 -34 38 c-74 82 -105 209 -78 321 31 129 147
238 277 261 50 8 365 10 1173 8 l1105 -3 57 -27 c182 -85 262 -287 185 -470
-8 -18 -30 -54 -50 -80 l-37 -48 1274 -2 1275 -3 -264 -390 c-177 -262 -260
-392 -252 -397 7 -4 23 -8 37 -8 44 -1 203 -38 280 -66 252 -91 456 -233 628
-439 46 -55 95 -121 110 -148 24 -42 30 -47 57 -45 27 3 35 12 81 104 68 137
78 184 64 320 -27 266 -100 469 -248 689 -224 334 -522 538 -908 626 -92 20
-130 22 -574 28 l-475 6 -55 26 c-69 32 -146 109 -176 174 -13 28 -28 89 -34
138 -21 174 -38 234 -102 362 -123 245 -337 429 -636 546 -284 111 -605 160
-1026 158 -122 -1 -234 -4 -251 -5z"/>
<path d="M6485 5158 l-27 -21 6 -116 c4 -64 2 -211 -3 -327 -8 -170 -14 -223
-31 -275 -54 -161 -142 -211 -219 -123 -34 38 -38 49 -50 152 -5 40 -17 84
-26 99 -15 23 -22 25 -63 20 -73 -8 -85 -31 -80 -147 6 -113 26 -167 89 -235
62 -67 109 -89 194 -89 57 0 80 5 125 28 155 78 211 204 230 515 6 92 9 241 7
333 -2 146 -5 169 -21 187 -26 29 -94 28 -131 -1z"/>
<path d="M4075 5099 c-106 -8 -135 -32 -120 -99 10 -47 28 -54 154 -60 l116
-5 14 -30 c16 -33 21 -267 11 -560 -4 -134 -3 -153 13 -177 20 -29 64 -44 98
-33 42 14 51 63 60 330 4 138 8 291 8 342 1 80 4 95 24 118 19 23 33 27 111
34 80 8 93 12 113 35 27 31 30 78 7 97 -12 10 -75 13 -278 14 -143 0 -292 -3
-331 -6z"/>
<path d="M4878 4861 c-41 -9 -99 -44 -140 -86 -110 -111 -148 -298 -86 -424
61 -122 267 -177 403 -108 62 31 139 111 168 175 31 67 30 205 -2 278 -26 60
-91 127 -144 149 -46 19 -147 27 -199 16z m109 -142 c95 -36 139 -159 92 -257
-63 -130 -232 -145 -290 -26 -19 41 -20 51 -10 101 13 67 50 134 89 161 48 34
74 38 119 21z"/>
<path d="M6978 4857 c-238 -68 -334 -457 -144 -585 102 -68 232 -80 331 -29
62 31 139 111 168 175 31 67 30 205 -2 278 -26 60 -91 127 -144 149 -53 22
-152 28 -209 12z m119 -138 c95 -36 139 -159 92 -257 -63 -130 -232 -145 -290
-26 -19 41 -20 51 -10 101 13 67 50 134 89 161 48 34 74 38 119 21z"/>
<path d="M5844 4825 c-29 -20 -59 -92 -118 -289 -28 -93 -56 -171 -62 -173
-19 -6 -95 153 -145 302 -38 115 -51 142 -72 153 -48 24 -105 -18 -114 -85 -3
-27 4 -62 27 -123 31 -84 141 -303 186 -370 13 -19 24 -48 24 -65 0 -53 -64
-169 -135 -245 -73 -78 -78 -99 -33 -133 43 -32 88 -17 158 54 47 48 74 90
135 210 122 240 229 541 242 675 5 54 3 64 -16 83 -25 25 -48 27 -77 6z"/>
<path d="M7946 4815 c-27 -29 -48 -83 -112 -297 -26 -87 -51 -158 -56 -158
-25 0 -109 179 -159 341 -35 112 -57 138 -106 122 -41 -14 -66 -55 -66 -105 1
-46 57 -204 97 -273 13 -22 39 -69 59 -105 19 -36 46 -85 61 -111 23 -40 24
-49 15 -85 -19 -69 -60 -137 -119 -199 -76 -80 -86 -99 -66 -131 19 -28 54
-39 94 -29 15 3 54 34 87 69 135 141 375 720 375 906 0 77 -56 107 -104 55z"/>
<path d="M3319 3584 c-219 -295 -192 -664 65 -919 170 -169 408 -239 641 -190
38 8 113 36 165 62 269 134 427 437 381 732 -15 97 -70 221 -140 315 l-56 76
-500 0 -500 0 -56 -76z"/>
<path d="M7569 3584 c-219 -295 -192 -664 65 -919 65 -65 100 -90 176 -128
210 -104 420 -104 630 0 269 134 427 437 381 732 -15 97 -70 221 -140 315
l-56 76 -500 0 -500 0 -56 -76z"/>
</g>
</svg>
