<?xml version="1.0" standalone="no"?>
<!DOCTYPE svg PUBLIC "-//W3C//DTD SVG 20010904//EN"
 "http://www.w3.org/TR/2001/REC-SVG-20010904/DTD/svg10.dtd">
<svg version="1.0" xmlns="http://www.w3.org/2000/svg"
 width="1200.000000pt" height="1200.000000pt" viewBox="0 0 1200.000000 1200.000000"
 preserveAspectRatio="xMidYMid meet">

<g transform="translate(0.000000,1200.000000) scale(0.100000,-0.100000)"
fill="#000000" stroke="none">
<path d="M6530 5184 c-37 -13 -59 -28 -66 -43 -4 -9 -6 -122 -5 -251 1 -129
-2 -278 -8 -330 -15 -153 -63 -264 -128 -295 -28 -14 -37 -14 -66 -1 -53 22
-76 63 -88 158 -6 46 -17 98 -25 116 -12 30 -16 32 -59 32 -39 0 -52 -5 -77
-30 -30 -31 -30 -31 -24 -111 10 -112 29 -165 80 -230 59 -76 117 -104 211
-104 85 0 158 31 222 93 111 109 147 293 141 729 -3 254 -4 258 -63 267 -17 3
-37 3 -45 0z"/>
<path d="M4070 5103 c-99 -12 -120 -25 -120 -78 0 -18 9 -43 19 -56 18 -22 28
-24 138 -29 l118 -5 13 -39 c14 -44 18 -302 7 -541 -6 -140 -5 -152 14 -182
35 -55 112 -56 138 -2 21 44 33 202 33 457 0 325 -4 316 152 332 93 9 118 27
118 85 0 59 -4 60 -319 60 -157 0 -297 -1 -311 -2z"/>
<path d="M4858 4857 c-89 -29 -168 -112 -215 -227 -28 -67 -31 -183 -7 -253
44 -130 246 -204 397 -147 70 26 152 104 188 176 50 102 34 267 -34 355 -50
66 -121 100 -214 105 -46 2 -93 -1 -115 -9z m168 -162 c36 -24 67 -92 67 -150
0 -60 -19 -101 -67 -143 -82 -72 -187 -58 -233 32 -20 39 -12 128 15 182 53
102 136 133 218 79z"/>
<path d="M6968 4857 c-89 -29 -168 -112 -215 -227 -28 -67 -31 -183 -7 -253
44 -130 246 -204 397 -147 70 26 152 104 188 176 50 102 34 267 -34 355 -50
66 -121 100 -214 105 -46 2 -93 -1 -115 -9z m168 -162 c36 -24 67 -92 67 -150
0 -60 -19 -101 -67 -143 -82 -72 -187 -58 -233 32 -20 39 -12 128 15 182 53
102 136 133 218 79z"/>
<path d="M5833 4818 c-34 -37 -50 -77 -104 -259 -28 -96 -55 -180 -59 -188
-16 -30 -96 131 -157 321 -40 122 -59 145 -113 133 -39 -9 -70 -56 -70 -107 0
-71 93 -282 207 -470 29 -47 34 -62 28 -90 -15 -67 -70 -161 -132 -225 -72
-73 -81 -109 -38 -137 84 -55 184 32 303 262 175 341 284 711 224 765 -26 24
-65 21 -89 -5z"/>
<path d="M7940 4810 c-27 -29 -51 -93 -127 -350 -16 -52 -33 -95 -38 -94 -18
1 -103 185 -145 315 -27 84 -49 133 -60 139 -31 17 -58 11 -90 -17 -46 -42
-49 -88 -11 -191 30 -83 142 -304 187 -372 13 -19 24 -47 24 -63 0 -54 -64
-172 -134 -246 -36 -39 -66 -79 -66 -90 0 -26 46 -61 80 -61 33 0 96 42 139
92 40 46 147 245 205 382 76 177 156 446 156 522 0 13 -9 33 -20 44 -29 29
-67 25 -100 -10z"/>
</g>
</svg>
