<svg xmlns="http://www.w3.org/2000/svg" version="1.1" xmlns:xlink="http://www.w3.org/1999/xlink" xmlns:svgjs="http://svgjs.com/svgjs" width="1440" height="560" preserveAspectRatio="none" viewBox="0 0 1440 560"><g mask="url(&quot;#SvgjsMask1000&quot;)" fill="none"><rect width="1440" height="560" x="0" y="0" fill="#1e3266"></rect><path d="M1464 560L0 560 L0 357.88Q23.85 309.73, 72 333.58Q119.52 261.1, 192 308.61Q219.69 264.3, 264 291.98Q353.29 261.27, 384 350.56Q455.49 302.05, 504 373.54Q512.75 310.28, 576 319.03Q595.94 266.97, 648 286.91Q714.87 233.77, 768 300.64Q855.72 268.36, 888 356.07Q912.49 260.56, 1008 285.05Q1087.36 244.4, 1128 323.76Q1179.64 303.4, 1200 355.05Q1230.75 265.8, 1320 296.54Q1350.3 254.84, 1392 285.13Q1458.88 280.01, 1464 346.9z" fill="#182f5d"></path><path d="M1464 560L0 560 L0 379.54Q40.02 347.56, 72 387.58Q117.5 313.08, 192 358.59Q252.19 346.77, 264 406.96Q314.68 385.64, 336 436.32Q350.64 378.96, 408 393.6Q426.91 340.51, 480 359.43Q548 307.44, 600 375.44Q663.49 366.93, 672 430.41Q692.98 331.38, 792 352.36Q860.83 301.19, 912 370.02Q1007.91 345.93, 1032 441.84Q1085.14 374.99, 1152 428.13Q1195.78 351.91, 1272 395.69Q1309.29 312.98, 1392 350.27Q1434.01 320.28, 1464 362.3z" fill="#25467d"></path><path d="M1512 560L0 560 L0 470.96Q57.68 408.64, 120 466.32Q150.63 424.95, 192 455.59Q245.89 437.48, 264 491.36Q312.47 467.83, 336 516.31Q365.94 426.25, 456 456.18Q500.41 428.59, 528 472.99Q595.87 420.86, 648 488.72Q669.05 437.77, 720 458.82Q802.48 421.3, 840 503.78Q866.33 458.11, 912 484.44Q925.32 425.75, 984 439.07Q1056.37 391.44, 1104 463.81Q1152.35 440.16, 1176 488.51Q1203.06 395.56, 1296 422.62Q1337.37 391.99, 1368 433.35Q1411.05 404.4, 1440 447.45Q1487.64 423.09, 1512 470.73z" fill="#356cb1"></path><path d="M1512 560L0 560 L0 574.7Q8.35 511.05, 72 519.4Q144.3 471.7, 192 544.01Q239.98 519.99, 264 567.96Q305.65 537.62, 336 579.27Q367.95 491.22, 456 523.18Q484.61 479.79, 528 508.4Q557.31 465.7, 600 495.01Q696.4 471.41, 720 567.82Q726.06 501.88, 792 507.95Q822.49 466.44, 864 496.93Q928.33 489.26, 936 553.6Q958.98 504.58, 1008 527.55Q1075.84 475.38, 1128 543.22Q1140.7 483.92, 1200 496.63Q1273.49 450.13, 1320 523.62Q1373.39 505.01, 1392 558.41Q1422.94 469.35, 1512 500.29z" fill="white"></path></g><defs><mask id="SvgjsMask1000"><rect width="1440" height="560" fill="#ffffff"></rect></mask></defs></svg>